<?xml version="1.0" encoding="iso-8859-1"?>
<!-- Uploaded to: SVG Repo, www.svgrepo.com, Generator: SVG Repo Mixer Tools -->
<svg height="800px" width="800px" version="1.1" id="Layer_1" xmlns="http://www.w3.org/2000/svg" xmlns:xlink="http://www.w3.org/1999/xlink" 
	 viewBox="0 0 512 512" xml:space="preserve">
<path style="fill:#FFC674;" d="M445.139,12.047H66.861c-17.965,0-32.527,14.562-32.527,32.527v143.761h443.332V44.574
	C477.666,26.61,463.103,12.047,445.139,12.047z"/>
<path style="fill:#6D529F;" d="M34.334,188.335v279.091c0,17.965,14.562,32.527,32.527,32.527h378.278
	c17.965,0,32.527-14.563,32.527-32.527V188.335H34.334z"/>
<path style="fill:#E3A9ED;" d="M208.238,149.393c11.884-12.849,28.879-20.902,47.762-20.902s35.879,8.052,47.762,20.902l60.22-60.22
	C336.674,60.927,298.391,43.359,256,43.359s-80.674,17.569-107.981,45.815L208.238,149.393z"/>
<path d="M372.642,80.801C341.791,48.887,300.366,31.312,256,31.312s-85.791,17.575-116.642,49.489
	c-4.569,4.726-4.506,12.243,0.142,16.892l60.218,60.218c2.262,2.261,5.327,3.529,8.518,3.529c0.077,0,0.157,0,0.235-0.002
	c3.276-0.064,6.385-1.459,8.609-3.865c10.012-10.825,24.197-17.035,38.918-17.035c14.936,0,28.758,6.05,38.918,17.036
	c2.225,2.406,5.334,3.801,8.609,3.865c0.078,0.001,0.157,0.002,0.235,0.002c3.191,0,6.257-1.267,8.518-3.529l60.218-60.22
	C377.149,93.044,377.211,85.528,372.642,80.801z M303.376,132.743c-10.283-7.999-22.47-13.279-35.329-15.33v-7.182
	c0-6.654-5.395-12.047-12.047-12.047s-12.047,5.393-12.047,12.047v7.181c-12.859,2.05-25.046,7.331-35.329,15.33l-43.361-43.361
	C190.401,67.389,222.198,55.406,256,55.406s65.599,11.982,90.737,33.975L303.376,132.743z"/>
<path style="fill:#FFCEB3;" d="M314.999,313.796c-0.629-17.171,2.523-34.334,9.857-49.872c9.209-19.508,25.699-38.351,54.49-32.592
	c55.596,11.119,53.565,78.335,26.408,118.141c-18.861,27.647-19.369,53.095-36.766,79.224
	c-11.081,16.642-35.724,20.987-54.966,8.339c-20.949-13.77-22.239-47.257-8.339-70.885
	C314.672,350.867,315.521,328.025,314.999,313.796z"/>
<path d="M338.162,456.421c-10.438,0-21.181-3.025-30.759-9.32c-12.947-8.511-20.979-22.966-22.616-40.706
	c-1.443-15.649,2.387-32.544,10.511-46.355c5.672-9.641,8.393-25.908,7.662-45.804l0,0c-0.716-19.517,3.089-38.694,11.003-55.457
	c14.689-31.12,38.753-45.066,67.745-39.263c23.375,4.674,40.235,18.186,48.757,39.075c11.611,28.46,5.68,67.711-14.759,97.669
	c-8.809,12.911-13.23,25.336-17.912,38.49c-4.666,13.113-9.492,26.672-18.78,40.621
	C369.875,449.099,354.394,456.421,338.162,456.421z M327.038,313.354c0.634,17.284-0.754,41.535-10.972,58.905
	c-10.374,17.636-11.047,44.442,4.574,54.709c13.206,8.681,30.755,6.414,38.32-4.949c7.641-11.475,11.768-23.07,16.137-35.346
	c4.989-14.017,10.146-28.509,20.706-43.991c15.573-22.827,20.768-54.364,12.354-74.989c-5.398-13.232-15.888-21.492-31.173-24.55
	c-6.554-1.308-26.495-5.298-41.233,25.922C329.475,282.358,326.463,297.672,327.038,313.354L327.038,313.354z"/>
<path style="fill:#FFCEB3;" d="M197.001,313.796c0.63-17.171-2.523-34.334-9.857-49.872c-9.209-19.508-25.699-38.351-54.49-32.592
	c-55.596,11.119-53.565,78.335-26.408,118.141c18.861,27.647,19.369,53.095,36.766,79.224c11.081,16.642,35.724,20.987,54.966,8.339
	c20.949-13.77,22.239-47.257,8.339-70.885C197.328,350.867,196.479,328.025,197.001,313.796z"/>
<path d="M173.838,456.421c-16.233,0-31.713-7.321-40.853-21.05c-9.287-13.949-14.113-27.508-18.779-40.621
	c-4.681-13.154-9.104-25.578-17.912-38.49c-20.439-29.96-26.37-69.209-14.759-97.669c8.521-20.887,25.381-34.399,48.757-39.075
	c29.001-5.801,53.059,8.145,67.745,39.263c7.912,16.763,11.718,35.94,11.003,55.456l0,0c-0.73,19.897,1.99,36.164,7.662,45.804
	c8.123,13.81,11.954,30.706,10.511,46.355c-1.637,17.739-9.669,32.195-22.616,40.706
	C195.021,453.396,184.273,456.421,173.838,456.421z M142.874,242.242c-3.349,0-6.091,0.548-7.857,0.901
	c-15.285,3.058-25.775,11.317-31.173,24.549c-8.414,20.625-3.219,52.163,12.354,74.989c10.562,15.482,15.719,29.974,20.706,43.991
	c4.369,12.276,8.496,23.871,16.136,35.346c7.567,11.363,25.115,13.631,38.322,4.949c15.621-10.268,14.948-37.074,4.574-54.709
	c-10.218-17.371-11.607-41.62-10.972-58.905l0,0c0.575-15.682-2.437-30.996-8.712-44.289
	C165.486,246.262,151.946,242.242,142.874,242.242z M197.001,313.796h0.012H197.001z"/>
<path d="M445.139,0H66.861C42.283,0,22.287,19.996,22.287,44.574v143.761v279.091c0,24.578,19.996,44.574,44.574,44.574h378.278
	c24.578,0,44.574-19.996,44.574-44.574V188.335V44.574C489.713,19.996,469.717,0,445.139,0z M46.381,44.574
	c0-11.293,9.187-20.48,20.48-20.48h378.278c11.293,0,20.48,9.187,20.48,20.48v131.714H46.381V44.574z M465.619,467.426
	c0,11.293-9.187,20.48-20.48,20.48H268.047v-217.11c0-6.654-5.395-12.047-12.047-12.047s-12.047,5.393-12.047,12.047v217.11H66.861
	c-11.293,0-20.48-9.187-20.48-20.48V200.382h419.238V467.426z"/>
<path d="M256,246.7c-0.783,0-1.579-0.084-2.349-0.241c-0.771-0.145-1.53-0.386-2.265-0.675c-0.724-0.301-1.422-0.675-2.072-1.108
	c-0.664-0.446-1.278-0.952-1.832-1.506c-0.554-0.554-1.06-1.169-1.494-1.831c-0.432-0.651-0.807-1.349-1.108-2.072
	c-0.301-0.735-0.542-1.494-0.685-2.253c-0.158-0.783-0.241-1.578-0.241-2.361s0.083-1.578,0.241-2.349
	c0.143-0.771,0.384-1.53,0.685-2.253c0.301-0.735,0.676-1.434,1.108-2.084c0.434-0.663,0.94-1.277,1.494-1.831
	c0.554-0.554,1.169-1.06,1.832-1.494c0.651-0.434,1.348-0.807,2.072-1.108c0.735-0.301,1.494-0.53,2.265-0.687
	c1.542-0.313,3.144-0.313,4.698,0c0.771,0.157,1.53,0.386,2.252,0.687c0.735,0.301,1.434,0.675,2.084,1.108
	c0.663,0.434,1.277,0.94,1.831,1.494c0.555,0.554,1.061,1.169,1.494,1.831c0.434,0.651,0.807,1.349,1.108,2.084
	c0.301,0.723,0.542,1.482,0.687,2.253c0.157,0.771,0.241,1.566,0.241,2.349s-0.084,1.578-0.241,2.361
	c-0.145,0.759-0.385,1.518-0.687,2.253c-0.301,0.723-0.675,1.422-1.108,2.072c-0.432,0.663-0.938,1.277-1.494,1.831
	c-0.554,0.554-1.169,1.06-1.831,1.506c-0.651,0.434-1.349,0.807-2.084,1.108c-0.723,0.289-1.481,0.53-2.252,0.675
	C257.578,246.615,256.782,246.7,256,246.7z"/>
</svg>